<svg xmlns="http://www.w3.org/2000/svg" version="1.1" xmlns:xlink="http://www.w3.org/1999/xlink" xmlns:svgjs="http://svgjs.dev/svgjs" width="700" height="1024" preserveAspectRatio="none" viewBox="0 0 700 1024"><g mask="url(&quot;#SvgjsMask3242&quot;)" fill="none"><rect width="700" height="1024" x="0" y="0" fill="url(&quot;#SvgjsLinearGradient3243&quot;)"></rect><use xlink:href="#SvgjsG3246" transform="translate(0, 0)" fill="rgba(255, 255, 255, 0.36)"></use></g><defs><mask id="SvgjsMask3242"><rect width="700" height="1024" fill="#ffffff"></rect></mask><linearGradient x1="-11.57%" y1="7.91%" x2="111.57%" y2="92.09%" gradientUnits="userSpaceOnUse" id="SvgjsLinearGradient3243"><stop stop-color="rgba(249, 84, 107, 1)" offset="0"></stop><stop stop-color="rgba(252, 118, 81, 1)" offset="0.88"></stop></linearGradient><g id="SvgjsG3244"><path d="M12.35 14.71l0 0c-1.79 1.16-3.93 1.56-6.02 1.12C4.24 15.38 2.45 14.15 1.29 12.35 0.12 10.56-0.27 8.43 0.17 6.34 0.61 4.25 1.84 2.46 3.63 1.3l0.01-0.01C5.43 0.13 7.57-0.27 9.66 0.17c2.09 0.44 3.88 1.67 5.05 3.47 1.16 1.8 1.56 3.93 1.11 6.02-0.45 2.09-1.68 3.88-3.47 5.05z m-7.71-11.87c-1.38 0.9-2.33 2.27-2.67 3.88-0.34 1.61-0.04 3.25 0.86 4.63 0.9 1.38 2.28 2.33 3.89 2.68 1.61 0.34 3.26 0.04 4.63-0.86 2.85-1.85 3.66-5.68 1.82-8.53-1.85-2.85-5.67-3.66-8.52-1.81l-0.01 0.01z"></path><path d="M8.11 6.9L7.14 5.4c0.45-0.25 1.06-0.04 1.38 0.37l1.42-0.92c-0.95-1.46-2.77-1.37-3.72-0.83l-0.64-0.99L4.22 3.91l0.64 0.99c-0.4 0.26-1.87 1.94-0.8 3.57 0.94 1.46 2.5 1.01 3.48 0.55l1.06 1.64c-0.78 0.24-1.23-0.19-1.59-0.54l-1.44 0.94c1.15 1.57 3.08 1.4 3.94 1.01l0.66 1 1.37-0.89-0.64-0.99c1.05-0.76 1.72-2.54 0.89-3.82-0.96-1.47-2.51-1.06-3.68-0.46zM6.59 7.55c-0.98 0.61-1.68-0.43-0.81-1.25l0.81 1.25z m3.41 2.22L9.08 8.35c1.22-0.74 2.13 0.36 0.92 1.42z"></path></g><g id="SvgjsG3245"><path d="M3.69 1.24c-2.77 1.8-3.56 5.5-1.76 8.28 3.04 4.69 10.49 5.17 10.49 5.17s2.58-7-0.45-11.69c-1.8-2.77-5.5-3.56-8.28-1.76z m4.7 7.23c-1.22 0.8-2.86 0.45-3.66-0.77S4.28 4.84 5.51 4.04s2.86-0.45 3.66 0.78S9.61 7.68 8.39 8.47z"></path></g><g id="SvgjsG3246"><use xlink:href="#SvgjsG3244" transform="translate(0, 0) scale(1.9)" fill="rgba(255, 255, 255, 0.36)"></use><use xlink:href="#SvgjsG3245" transform="translate(0, 108.3) scale(1.9)" fill="rgba(255, 255, 255, 0.36)"></use><use xlink:href="#SvgjsG3244" transform="translate(0, 216.6) scale(1.9)" fill="rgba(255, 255, 255, 0.36)"></use><use xlink:href="#SvgjsG3245" transform="translate(0, 324.9) scale(1.9)" fill="rgba(255, 255, 255, 0.36)"></use><use xlink:href="#SvgjsG3244" transform="translate(0, 433.2) scale(1.9)" fill="rgba(255, 255, 255, 0.36)"></use><use xlink:href="#SvgjsG3245" transform="translate(0, 541.5) scale(1.9)" fill="rgba(255, 255, 255, 0.36)"></use><use xlink:href="#SvgjsG3244" transform="translate(0, 649.8) scale(1.9)" fill="rgba(255, 255, 255, 0.36)"></use><use xlink:href="#SvgjsG3245" transform="translate(0, 758.1) scale(1.9)" fill="rgba(255, 255, 255, 0.36)"></use><use xlink:href="#SvgjsG3244" transform="translate(0, 866.4) scale(1.9)" fill="rgba(255, 255, 255, 0.36)"></use><use xlink:href="#SvgjsG3245" transform="translate(0, 974.6999999999999) scale(1.9)" fill="rgba(255, 255, 255, 0.36)"></use><use xlink:href="#SvgjsG3245" transform="translate(108.3, 0) scale(1.9)" fill="rgba(255, 255, 255, 0.36)"></use><use xlink:href="#SvgjsG3244" transform="translate(108.3, 108.3) scale(1.9)" fill="rgba(255, 255, 255, 0.36)"></use><use xlink:href="#SvgjsG3245" transform="translate(108.3, 216.6) scale(1.9)" fill="rgba(255, 255, 255, 0.36)"></use><use xlink:href="#SvgjsG3244" transform="translate(108.3, 324.9) scale(1.9)" fill="rgba(255, 255, 255, 0.36)"></use><use xlink:href="#SvgjsG3245" transform="translate(108.3, 433.2) scale(1.9)" fill="rgba(255, 255, 255, 0.36)"></use><use xlink:href="#SvgjsG3244" transform="translate(108.3, 541.5) scale(1.9)" fill="rgba(255, 255, 255, 0.36)"></use><use xlink:href="#SvgjsG3245" transform="translate(108.3, 649.8) scale(1.9)" fill="rgba(255, 255, 255, 0.36)"></use><use xlink:href="#SvgjsG3244" transform="translate(108.3, 758.1) scale(1.9)" fill="rgba(255, 255, 255, 0.36)"></use><use xlink:href="#SvgjsG3245" transform="translate(108.3, 866.4) scale(1.9)" fill="rgba(255, 255, 255, 0.36)"></use><use xlink:href="#SvgjsG3244" transform="translate(108.3, 974.6999999999999) scale(1.9)" fill="rgba(255, 255, 255, 0.36)"></use><use xlink:href="#SvgjsG3244" transform="translate(216.6, 0) scale(1.9)" fill="rgba(255, 255, 255, 0.36)"></use><use xlink:href="#SvgjsG3245" transform="translate(216.6, 108.3) scale(1.9)" fill="rgba(255, 255, 255, 0.36)"></use><use xlink:href="#SvgjsG3244" transform="translate(216.6, 216.6) scale(1.9)" fill="rgba(255, 255, 255, 0.36)"></use><use xlink:href="#SvgjsG3245" transform="translate(216.6, 324.9) scale(1.9)" fill="rgba(255, 255, 255, 0.36)"></use><use xlink:href="#SvgjsG3244" transform="translate(216.6, 433.2) scale(1.9)" fill="rgba(255, 255, 255, 0.36)"></use><use xlink:href="#SvgjsG3245" transform="translate(216.6, 541.5) scale(1.9)" fill="rgba(255, 255, 255, 0.36)"></use><use xlink:href="#SvgjsG3244" transform="translate(216.6, 649.8) scale(1.9)" fill="rgba(255, 255, 255, 0.36)"></use><use xlink:href="#SvgjsG3245" transform="translate(216.6, 758.1) scale(1.9)" fill="rgba(255, 255, 255, 0.36)"></use><use xlink:href="#SvgjsG3244" transform="translate(216.6, 866.4) scale(1.9)" fill="rgba(255, 255, 255, 0.36)"></use><use xlink:href="#SvgjsG3245" transform="translate(216.6, 974.6999999999999) scale(1.9)" fill="rgba(255, 255, 255, 0.36)"></use><use xlink:href="#SvgjsG3245" transform="translate(324.9, 0) scale(1.9)" fill="rgba(255, 255, 255, 0.36)"></use><use xlink:href="#SvgjsG3244" transform="translate(324.9, 108.3) scale(1.9)" fill="rgba(255, 255, 255, 0.36)"></use><use xlink:href="#SvgjsG3245" transform="translate(324.9, 216.6) scale(1.9)" fill="rgba(255, 255, 255, 0.36)"></use><use xlink:href="#SvgjsG3244" transform="translate(324.9, 324.9) scale(1.9)" fill="rgba(255, 255, 255, 0.36)"></use><use xlink:href="#SvgjsG3245" transform="translate(324.9, 433.2) scale(1.9)" fill="rgba(255, 255, 255, 0.36)"></use><use xlink:href="#SvgjsG3244" transform="translate(324.9, 541.5) scale(1.9)" fill="rgba(255, 255, 255, 0.36)"></use><use xlink:href="#SvgjsG3245" transform="translate(324.9, 649.8) scale(1.9)" fill="rgba(255, 255, 255, 0.36)"></use><use xlink:href="#SvgjsG3244" transform="translate(324.9, 758.1) scale(1.9)" fill="rgba(255, 255, 255, 0.36)"></use><use xlink:href="#SvgjsG3245" transform="translate(324.9, 866.4) scale(1.9)" fill="rgba(255, 255, 255, 0.36)"></use><use xlink:href="#SvgjsG3244" transform="translate(324.9, 974.6999999999999) scale(1.9)" fill="rgba(255, 255, 255, 0.36)"></use><use xlink:href="#SvgjsG3244" transform="translate(433.2, 0) scale(1.9)" fill="rgba(255, 255, 255, 0.36)"></use><use xlink:href="#SvgjsG3245" transform="translate(433.2, 108.3) scale(1.9)" fill="rgba(255, 255, 255, 0.36)"></use><use xlink:href="#SvgjsG3244" transform="translate(433.2, 216.6) scale(1.9)" fill="rgba(255, 255, 255, 0.36)"></use><use xlink:href="#SvgjsG3245" transform="translate(433.2, 324.9) scale(1.9)" fill="rgba(255, 255, 255, 0.36)"></use><use xlink:href="#SvgjsG3244" transform="translate(433.2, 433.2) scale(1.9)" fill="rgba(255, 255, 255, 0.36)"></use><use xlink:href="#SvgjsG3245" transform="translate(433.2, 541.5) scale(1.9)" fill="rgba(255, 255, 255, 0.36)"></use><use xlink:href="#SvgjsG3244" transform="translate(433.2, 649.8) scale(1.9)" fill="rgba(255, 255, 255, 0.36)"></use><use xlink:href="#SvgjsG3245" transform="translate(433.2, 758.1) scale(1.9)" fill="rgba(255, 255, 255, 0.36)"></use><use xlink:href="#SvgjsG3244" transform="translate(433.2, 866.4) scale(1.9)" fill="rgba(255, 255, 255, 0.36)"></use><use xlink:href="#SvgjsG3245" transform="translate(433.2, 974.6999999999999) scale(1.9)" fill="rgba(255, 255, 255, 0.36)"></use><use xlink:href="#SvgjsG3245" transform="translate(541.5, 0) scale(1.9)" fill="rgba(255, 255, 255, 0.36)"></use><use xlink:href="#SvgjsG3244" transform="translate(541.5, 108.3) scale(1.9)" fill="rgba(255, 255, 255, 0.36)"></use><use xlink:href="#SvgjsG3245" transform="translate(541.5, 216.6) scale(1.9)" fill="rgba(255, 255, 255, 0.36)"></use><use xlink:href="#SvgjsG3244" transform="translate(541.5, 324.9) scale(1.9)" fill="rgba(255, 255, 255, 0.36)"></use><use xlink:href="#SvgjsG3245" transform="translate(541.5, 433.2) scale(1.9)" fill="rgba(255, 255, 255, 0.36)"></use><use xlink:href="#SvgjsG3244" transform="translate(541.5, 541.5) scale(1.9)" fill="rgba(255, 255, 255, 0.36)"></use><use xlink:href="#SvgjsG3245" transform="translate(541.5, 649.8) scale(1.9)" fill="rgba(255, 255, 255, 0.36)"></use><use xlink:href="#SvgjsG3244" transform="translate(541.5, 758.1) scale(1.9)" fill="rgba(255, 255, 255, 0.36)"></use><use xlink:href="#SvgjsG3245" transform="translate(541.5, 866.4) scale(1.9)" fill="rgba(255, 255, 255, 0.36)"></use><use xlink:href="#SvgjsG3244" transform="translate(541.5, 974.6999999999999) scale(1.9)" fill="rgba(255, 255, 255, 0.36)"></use><use xlink:href="#SvgjsG3244" transform="translate(649.8, 0) scale(1.9)" fill="rgba(255, 255, 255, 0.36)"></use><use xlink:href="#SvgjsG3245" transform="translate(649.8, 108.3) scale(1.9)" fill="rgba(255, 255, 255, 0.36)"></use><use xlink:href="#SvgjsG3244" transform="translate(649.8, 216.6) scale(1.9)" fill="rgba(255, 255, 255, 0.36)"></use><use xlink:href="#SvgjsG3245" transform="translate(649.8, 324.9) scale(1.9)" fill="rgba(255, 255, 255, 0.36)"></use><use xlink:href="#SvgjsG3244" transform="translate(649.8, 433.2) scale(1.9)" fill="rgba(255, 255, 255, 0.36)"></use><use xlink:href="#SvgjsG3245" transform="translate(649.8, 541.5) scale(1.9)" fill="rgba(255, 255, 255, 0.36)"></use><use xlink:href="#SvgjsG3244" transform="translate(649.8, 649.8) scale(1.9)" fill="rgba(255, 255, 255, 0.36)"></use><use xlink:href="#SvgjsG3245" transform="translate(649.8, 758.1) scale(1.9)" fill="rgba(255, 255, 255, 0.36)"></use><use xlink:href="#SvgjsG3244" transform="translate(649.8, 866.4) scale(1.9)" fill="rgba(255, 255, 255, 0.36)"></use><use xlink:href="#SvgjsG3245" transform="translate(649.8, 974.6999999999999) scale(1.9)" fill="rgba(255, 255, 255, 0.36)"></use></g></defs></svg>