<svg xmlns="http://www.w3.org/2000/svg" version="1.1" xmlns:xlink="http://www.w3.org/1999/xlink" xmlns:svgjs="http://svgjs.dev/svgjs" width="1500" height="477" viewBox="0 0 1500 477"><g transform="matrix(1,0,0,1,-0.9090909090909918,6.344210108533105)"><svg viewBox="0 0 396 126" data-background-color="#ffffff" preserveAspectRatio="xMidYMid meet" height="477" width="1500" xmlns="http://www.w3.org/2000/svg" xmlns:xlink="http://www.w3.org/1999/xlink"><g id="tight-bounds" transform="matrix(1,0,0,1,0.2400000000000091,0.03955298838843646)"><svg viewBox="0 0 395.52 125.92089402322316" height="125.92089402322316" width="395.52"><g><svg viewBox="0 0 631.3449457032775 200.99999999999997" height="125.92089402322316" width="395.52"><g><rect width="8.281931510204082" height="200.99999999999997" x="241.78316989980055" y="0" fill="#fc7451" opacity="1" stroke-width="0" stroke="transparent" fill-opacity="1" class="rect-yte-0" data-fill-palette-color="primary" rx="1%" id="yte-0" data-palette-color="#fc7451"></rect></g><g transform="matrix(1,0,0,1,271.7455503895965,0.4999999999999858)"><svg viewBox="0 0 359.599395313681 200" height="200" width="359.599395313681"><g id="textblocktransform"><svg viewBox="0 0 359.599395313681 200" height="200" width="359.599395313681" id="textblock"><g><svg viewBox="0 0 359.599395313681 200" height="200" width="359.599395313681"><g transform="matrix(1,0,0,1,0,0)"><svg width="359.599395313681" viewBox="0.41999999999999993 -33.33 132.36 80.5" height="200" data-palette-color="#fc7451"><svg></svg><svg></svg><g class="wordmark-text-0" data-fill-palette-color="primary" id="text-0"><path d="M4.62 0h-3.99l13.22-32.29h0.07l13.23 32.29h-4.2l-3.68-9.27h-10.94zM12.12-18.75l-2.47 6.18h8.3l-2.46-6.18c-0.307-0.787-0.597-1.563-0.87-2.33-0.28-0.76-0.56-1.673-0.84-2.74v0c-0.273 1.067-0.537 1.977-0.79 2.73-0.26 0.747-0.55 1.527-0.87 2.34zM34.86 0h-3.75v-33.33h3.75v15.45c0.787-1.087 1.76-1.92 2.92-2.5 1.153-0.58 2.39-0.87 3.71-0.87v0c1.487 0 2.86 0.363 4.12 1.09 1.26 0.733 2.283 1.787 3.07 3.16 0.787 1.38 1.18 3.053 1.18 5.02v0 11.98h-3.75v-11.46c0-1.64-0.49-3.093-1.47-4.36-0.987-1.26-2.37-1.89-4.15-1.89v0c-1.46 0-2.763 0.527-3.91 1.58-1.147 1.053-1.72 2.577-1.72 4.57v0zM65.63 0.42v0c-2.02 0-3.863-0.487-5.53-1.46-1.667-0.973-2.99-2.283-3.97-3.93-0.987-1.64-1.48-3.457-1.48-5.45v0c0-2.013 0.493-3.837 1.48-5.47 0.98-1.627 2.303-2.927 3.97-3.9 1.667-0.973 3.51-1.46 5.53-1.46v0c2.033 0 3.877 0.487 5.53 1.46 1.66 0.973 2.98 2.273 3.96 3.9 0.987 1.633 1.48 3.457 1.48 5.47v0c0 1.993-0.493 3.81-1.48 5.45-0.98 1.647-2.3 2.957-3.96 3.93-1.653 0.973-3.497 1.46-5.53 1.46zM65.63-3.13v0c1.34 0 2.553-0.327 3.64-0.98 1.087-0.66 1.957-1.54 2.61-2.64 0.647-1.1 0.97-2.323 0.97-3.67v0c0-1.34-0.323-2.56-0.97-3.66-0.653-1.1-1.523-1.98-2.61-2.64-1.087-0.66-2.3-0.99-3.64-0.99v0c-1.347 0-2.563 0.33-3.65 0.99-1.087 0.66-1.953 1.54-2.6 2.64-0.653 1.1-0.98 2.32-0.98 3.66v0c0 1.347 0.327 2.57 0.98 3.67 0.647 1.1 1.513 1.98 2.6 2.64 1.087 0.653 2.303 0.98 3.65 0.98zM85.56 0h-3.75v-20.83h3.47v3.82c0.74-1.227 1.723-2.207 2.95-2.94 1.227-0.727 2.683-1.09 4.37-1.09v0l0.94 3.75c-0.44-0.14-0.95-0.21-1.53-0.21v0c-1.94 0-3.5 0.62-4.68 1.86-1.18 1.24-1.77 3.003-1.77 5.29v0zM101.18 0h-3.75v-20.83h3.47v3.82c0.74-1.227 1.723-2.207 2.95-2.94 1.227-0.727 2.687-1.09 4.38-1.09v0l0.94 3.75c-0.44-0.14-0.95-0.21-1.53-0.21v0c-1.947 0-3.51 0.62-4.69 1.86-1.18 1.24-1.77 3.003-1.77 5.29v0zM121.98 0.28v0c-1.9 0-3.637-0.48-5.21-1.44-1.573-0.96-2.83-2.25-3.77-3.87-0.933-1.627-1.4-3.423-1.4-5.39v0c0-1.967 0.467-3.76 1.4-5.38 0.94-1.62 2.197-2.91 3.77-3.87 1.573-0.96 3.31-1.44 5.21-1.44v0c1.433 0 2.78 0.267 4.04 0.8 1.267 0.533 2.363 1.273 3.29 2.22v0-2.74h3.47v20.83h-3.47v-2.74c-0.927 0.927-2.023 1.66-3.29 2.2-1.26 0.547-2.607 0.82-4.04 0.82zM122.47-3.13v0c1.313 0 2.51-0.327 3.59-0.98 1.073-0.66 1.93-1.54 2.57-2.64 0.633-1.1 0.95-2.323 0.95-3.67v0c0-1.34-0.317-2.56-0.95-3.66-0.64-1.1-1.497-1.98-2.57-2.64-1.08-0.66-2.277-0.99-3.59-0.99v0c-1.32 0-2.52 0.33-3.6 0.99-1.073 0.66-1.93 1.54-2.57 2.64-0.633 1.1-0.95 2.32-0.95 3.66v0c0 1.347 0.317 2.57 0.95 3.67 0.64 1.1 1.497 1.98 2.57 2.64 1.08 0.653 2.28 0.98 3.6 0.98z" fill="#fc7451" fill-rule="nonzero" stroke="none" stroke-width="1" stroke-linecap="butt" stroke-linejoin="miter" stroke-miterlimit="10" stroke-dasharray="" stroke-dashoffset="0" font-family="none" font-weight="none" font-size="none" text-anchor="none" style="mix-blend-mode: normal" data-fill-palette-color="primary" opacity="1"></path><path transform="translate(0,36.75)" d="M6.53 10.42h-4.06l6.77-13.48-8.82-17.77h4.23l4.45 9.02c0.393 0.813 0.773 1.613 1.14 2.4 0.373 0.787 0.743 1.737 1.11 2.85v0c0.393-1.113 0.77-2.07 1.13-2.87 0.36-0.8 0.75-1.593 1.17-2.38v0l4.51-9.02h3.99zM34.83 0.28v0c-1.9 0-3.637-0.48-5.21-1.44-1.573-0.96-2.83-2.25-3.77-3.87-0.94-1.627-1.41-3.423-1.41-5.39v0c0-1.967 0.47-3.76 1.41-5.38 0.94-1.62 2.197-2.91 3.77-3.87 1.573-0.96 3.31-1.44 5.21-1.44v0c1.433 0 2.78 0.267 4.04 0.8 1.26 0.533 2.353 1.273 3.28 2.22v0-2.74h3.48v20.83h-3.48v-2.74c-0.927 0.927-2.02 1.66-3.28 2.2-1.26 0.547-2.607 0.82-4.04 0.82zM35.31-3.13v0c1.32 0 2.52-0.327 3.6-0.98 1.073-0.66 1.93-1.54 2.57-2.64 0.633-1.1 0.95-2.323 0.95-3.67v0c0-1.34-0.317-2.56-0.95-3.66-0.64-1.1-1.497-1.98-2.57-2.64-1.08-0.66-2.28-0.99-3.6-0.99v0c-1.32 0-2.517 0.33-3.59 0.99-1.08 0.66-1.937 1.54-2.57 2.64-0.64 1.1-0.96 2.32-0.96 3.66v0c0 1.347 0.32 2.57 0.96 3.67 0.633 1.1 1.49 1.98 2.57 2.64 1.073 0.653 2.27 0.98 3.59 0.98z" fill="#fc7451" fill-rule="nonzero" stroke="none" stroke-width="1" stroke-linecap="butt" stroke-linejoin="miter" stroke-miterlimit="10" stroke-dasharray="" stroke-dashoffset="0" font-family="none" font-weight="none" font-size="none" text-anchor="none" style="mix-blend-mode: normal" data-fill-palette-color="primary" opacity="1"></path></g></svg></g></svg></g></svg></g></svg></g><g transform="matrix(1,0,0,1,0,0.4999999999999858)"><svg viewBox="0 0 220.10272092020872 200" height="200" width="220.10272092020872"><g><svg xmlns:x="http://ns.adobe.com/Extensibility/1.0/" xmlns:i="http://ns.adobe.com/AdobeIllustrator/10.0/" xmlns:graph="http://ns.adobe.com/Graphs/1.0/" xmlns="http://www.w3.org/2000/svg" xmlns:xlink="http://www.w3.org/1999/xlink" xmlns:a="http://ns.adobe.com/AdobeSVGViewerExtensions/3.0/" version="1.1" x="0" y="0" viewBox="5.0001316282588935 9.11 89.99985772558368 81.7798683717411" enable-background="new 0 0 100 100" xml:space="preserve" height="200" width="220.10272092020872" class="icon-icon-0" data-fill-palette-color="accent" id="icon-0"><g fill="#f9546a" data-fill-palette-color="accent"><path d="M13.384 44.255L5.163 74.938A4.794 4.794 0 0 0 8.55 80.802L24.31 85.024z" fill="#f9546a" data-fill-palette-color="accent"></path><path d="M22.46 53.458L31.538 87.34A4.794 4.794 0 0 0 37.402 90.727L55.011 86.006z" fill="#f9546a" data-fill-palette-color="accent"></path><path d="M49.642 45.608A6 6 0 0 0 48.599 44.274L47.22 42.944A5.7 5.7 0 0 0 45.84 41.958 4.4 4.4 0 0 0 44.301 41.494 3.5 3.5 0 0 0 42.723 41.699C42.193 41.89 41.698 42.225 41.238 42.702 40.765 43.191 40.447 43.701 40.281 44.232A3.5 3.5 0 0 0 40.142 45.808C40.216 46.329 40.389 46.836 40.663 47.329 40.935 47.822 41.28 48.27 41.698 48.673L43.077 50.003C43.494 50.405 43.951 50.731 44.448 50.98S45.458 51.378 45.985 51.427A3.65 3.65 0 0 0 47.574 51.214C48.103 51.022 48.604 50.682 49.076 50.193 49.537 49.716 49.849 49.212 50.015 48.681A3.6 3.6 0 0 0 50.163 47.113 4.1 4.1 0 0 0 49.642 45.608" fill="#f9546a" data-fill-palette-color="accent"></path><path d="M93.597 47.856L54.855 9.114 27.386 9.11A6.39 6.39 0 0 0 20.999 15.497L20.998 42.97 59.741 81.713A4.787 4.787 0 0 0 66.513 81.713L93.596 54.627A4.785 4.785 0 0 0 93.597 47.856M35.28 23.395A4.785 4.785 0 0 1 28.508 23.395 4.788 4.788 0 1 1 35.28 23.395M52.934 49.628C52.587 50.561 52.017 51.438 51.224 52.262 50.418 53.097 49.553 53.708 48.628 54.094A7.2 7.2 0 0 1 45.842 54.673 6.8 6.8 0 0 1 43.115 54.099 8.1 8.1 0 0 1 40.693 52.473L39.314 51.143A8.2 8.2 0 0 1 37.584 48.765 7.1 7.1 0 0 1 36.892 46.06 6.9 6.9 0 0 1 37.351 43.256C37.705 42.318 38.277 41.437 39.071 40.613 39.877 39.778 40.743 39.167 41.667 38.781S43.518 38.211 44.444 38.229 46.277 38.448 47.164 38.83A8.2 8.2 0 0 1 49.602 40.474L50.98 41.804A8.3 8.3 0 0 1 52.704 44.155C53.124 45.021 53.353 45.916 53.394 46.842A7.1 7.1 0 0 1 52.934 49.628M61.306 64.159L53.206 31.791 56.201 31.051 64.3 63.419zM79.866 51.107C79.519 52.04 78.95 52.918 78.156 53.741 77.35 54.576 76.485 55.187 75.559 55.573A7.2 7.2 0 0 1 72.775 56.152C71.842 56.152 70.932 55.96 70.046 55.577S68.347 54.647 67.607 53.932L66.211 52.586A8.2 8.2 0 0 1 64.488 50.217 6.9 6.9 0 0 1 63.797 47.512C63.757 46.587 63.913 45.655 64.265 44.716S65.191 42.897 65.985 42.074C66.79 41.239 67.656 40.627 68.581 40.241S70.432 39.665 71.357 39.672A6.9 6.9 0 0 1 74.085 40.264 8.2 8.2 0 0 1 76.516 41.899L77.912 43.245A8.2 8.2 0 0 1 79.643 45.623C80.057 46.495 80.285 47.394 80.325 48.319A7 7 0 0 1 79.866 51.107" fill="#f9546a" data-fill-palette-color="accent"></path><path d="M76.558 47.07A6 6 0 0 0 75.513 45.735L74.117 44.389A5.7 5.7 0 0 0 72.737 43.403 4.3 4.3 0 0 0 71.207 42.947 3.6 3.6 0 0 0 69.638 43.16C69.108 43.351 68.613 43.686 68.153 44.163S67.38 45.144 67.213 45.675A3.8 3.8 0 0 0 67.058 47.251 4.1 4.1 0 0 0 67.561 48.772C67.832 49.266 68.178 49.713 68.596 50.116L69.992 51.462C70.41 51.865 70.869 52.193 71.372 52.448S72.392 52.855 72.92 52.904A3.64 3.64 0 0 0 74.507 52.691C75.037 52.499 75.537 52.159 76.01 51.669 76.47 51.192 76.782 50.688 76.949 50.158A3.6 3.6 0 0 0 77.089 48.582 4.3 4.3 0 0 0 76.558 47.07" fill="#f9546a" data-fill-palette-color="accent"></path></g></svg></g></svg></g></svg></g><defs></defs></svg><rect width="395.52" height="125.92089402322316" fill="none" stroke="none" visibility="hidden"></rect></g></svg></g></svg>